<svg xmlns="http://www.w3.org/2000/svg" width="204" height="181" viewBox="0 0 204 181">
    <defs>
        <linearGradient id="7mkwx6zaba" x1="50%" x2="50%" y1="84.594%" y2="0%">
            <stop offset="0%" stop-color="#FF5F02"/>
            <stop offset="100%" stop-color="#FFB600"/>
        </linearGradient>
        <linearGradient id="ho56gobjyb" x1="50%" x2="50%" y1="100%" y2="0%">
            <stop offset="0%" stop-color="#FF5F02"/>
            <stop offset="100%" stop-color="#FFB600"/>
        </linearGradient>
        <linearGradient id="kn2pcdj4hc" x1="50%" x2="50%" y1="104.974%" y2="-3.279%">
            <stop offset="0%" stop-color="#FF5F02"/>
            <stop offset="100%" stop-color="#FFB600"/>
        </linearGradient>
    </defs>
    <g fill="none" fill-rule="evenodd">
        <g transform="translate(56.307)">
            <rect width="89.715" height="86.163" fill="#FFF" rx="6.061"/>
            <g fill-rule="nonzero">
                <path fill="url(#7mkwx6zaba)" d="M39.115 4.646s-2.73 6.6-5.758 8.08c-2.218 1.085-4.913.359-6.904.18-.21-.03-.422-.06-.634-.08-.873-.099-1.75-.148-2.63-.147-4.503 0-8.444 1.24-10.63 3.101-4.098-1.615-6.726-4.12-6.726-6.936 0-3.329 3.685-6.227 9.128-7.73 1.566-.428 3.165-.727 4.78-.895.113-.014.23-.025.347-.036C21.268.06 22.454 0 23.64 0c1.028 0 1.975.047 2.813.12 1.264.11 2.522.286 3.768.527 3.816.766 6.963 2.19 8.894 3.999z" transform="translate(24.1 14.261)"/>
                <path fill="url(#ho56gobjyb)" d="M30.117 52.214c-.721 1.874-2.022 3.407-3.714 4.539l-.049.01v.022c-2.738.588-5.532.881-8.334.875-1.044 0-2.075-.04-3.086-.12v-.007c-1.437-.112-2.867-.296-4.284-.553-.092-.018-.18-.032-.272-.051-.092-.02-.195-.04-.291-.058-.467-.088-.927-.186-1.38-.293-2.405-.556-4.634-1.303-6.487-2.197-.442-.208-.861-.426-1.258-.655L0 53.171l1.097-4.258.051-.193c.008-.027.014-.054.018-.08l.1-.386c.897-3.176 3.622-5.215 6.947-5.215 1.033 0 2.38.418 2.609.479 2.813.864 6.244 1.372 9.944 1.372 3.164 0 6.133-.37 8.681-1.018 1.372 2.72 1.7 5.661.67 8.342z" transform="translate(24.1 14.261)"/>
                <path fill="url(#kn2pcdj4hc)" d="M41.497 39.629c0 8.433-5.929 15.1-15.248 17.184 1.682-1.132 2.96-2.719 3.675-4.594 2.334-6.12-2.339-13.585-10.438-16.684-.296-.113-.597-.22-.891-.318l-.037-.011c-.424-.16-.877-.32-1.357-.479C9.534 32.145.735 27.857.735 17.577c0-8.075 5.513-14.335 14.482-16.53-2.032 1.62-3.368 3.72-3.71 6.1-.71 4.916 3.007 9.778 8.951 12.579.006.004.012.008.018.01 1.415.719 3.291 1.502 5.707 2.414 10.73 3.787 15.314 9.02 15.314 17.479z" transform="translate(24.1 14.261)"/>
            </g>
        </g>
        <g fill="#FFF" fill-rule="nonzero">
            <path d="M2.869 78.973c.24 0 .394-.12.46-.36l1.803-5.55 1.787 5.55c.077.24.236.36.476.36h.519c.25 0 .399-.125.447-.374l1.874-9.27c.01-.048.014-.1.014-.158 0-.077-.029-.144-.087-.202-.057-.058-.124-.087-.201-.087h-.692c-.212 0-.332.082-.36.246l-1.485 7.524-1.586-5.19c-.077-.23-.23-.345-.461-.345h-.505c-.24 0-.389.115-.447.346l-1.6 5.19-1.484-7.525c-.03-.164-.145-.246-.346-.246H.288c-.077 0-.144.03-.202.087-.057.058-.086.125-.086.202l.029.158 1.86 9.27c.057.25.206.374.446.374h.534zm10.555-8.908c.096 0 .178-.032.245-.094.068-.063.101-.142.101-.238v-.75c0-.096-.033-.177-.1-.245-.068-.067-.15-.1-.246-.1h-.85c-.096 0-.176.033-.238.1-.062.068-.094.15-.094.245v.75c0 .096.032.175.094.238.062.062.142.094.238.094h.85zm-.1 8.908c.095 0 .175-.03.237-.093.063-.063.094-.142.094-.238v-6.833c0-.096-.031-.176-.094-.238-.062-.063-.142-.094-.238-.094h-.634c-.096 0-.175.031-.238.094-.062.062-.093.142-.093.238v6.833c0 .096.03.175.093.238.063.062.142.093.238.093h.634zm6.75 0c.096 0 .173-.03.23-.093.058-.063.087-.142.087-.238v-.476c0-.096-.03-.175-.087-.238-.057-.062-.134-.093-.23-.093h-.88c-.384 0-.656-.125-.814-.375-.159-.25-.238-.62-.238-1.11v-3.763h1.787c.097 0 .176-.029.238-.086.063-.058.094-.135.094-.23v-.462c0-.096-.031-.176-.094-.238-.062-.063-.141-.094-.238-.094h-1.787V69.07c0-.096-.031-.176-.094-.238-.062-.062-.141-.094-.238-.094h-.634c-.096 0-.173.032-.23.094-.058.062-.087.142-.087.238v2.407H15.72c-.096 0-.173.031-.23.094-.058.062-.087.142-.087.238v.461c0 .096.03.173.087.23.057.058.134.087.23.087h1.14v3.864c0 1.681.744 2.522 2.233 2.522h.98zm3.132 0c.096 0 .175-.03.238-.093.062-.063.093-.142.093-.238v-3.993c0-.683.183-1.218.548-1.608.365-.389.855-.584 1.47-.584.635 0 1.12.193 1.456.577.337.385.505.923.505 1.615v3.993c0 .096.031.175.093.238.063.062.142.093.238.093h.678c.096 0 .175-.03.238-.093.062-.063.093-.142.093-.238v-4.08c0-.97-.257-1.751-.77-2.342-.515-.591-1.233-.887-2.156-.887-.557 0-1.026.094-1.405.281-.38.188-.709.46-.988.815v-3.36c0-.105-.029-.187-.086-.244-.058-.058-.14-.087-.245-.087h-.663c-.096 0-.176.03-.238.087-.063.057-.094.14-.094.245v9.572c0 .096.031.175.094.238.062.062.142.093.238.093h.663zm15.547 0c.106 0 .19-.03.252-.093.063-.063.094-.142.094-.238v-3.417l3.474-5.867c.038-.077.058-.14.058-.187 0-.077-.032-.144-.094-.202-.062-.058-.132-.087-.209-.087h-.692c-.154 0-.279.082-.375.246l-2.84 4.713-2.854-4.713c-.076-.164-.201-.246-.374-.246H34.5c-.077 0-.144.03-.202.087-.058.058-.087.125-.087.202 0 .067.015.13.044.187l3.474 5.867v3.417c0 .096.03.175.093.238.063.062.142.093.238.093h.692zm7.615.144c1.057 0 1.872-.297 2.444-.893.571-.596.876-1.389.915-2.379.02-.211.029-.418.029-.62s-.01-.408-.03-.62c-.038-.99-.347-1.782-.929-2.378-.581-.596-1.39-.894-2.429-.894-1.038 0-1.847.298-2.429.894-.581.596-.891 1.389-.93 2.378l-.014.62.015.62c.038.99.343 1.783.915 2.379.572.596 1.386.893 2.443.893zm0-1.08c-.615 0-1.102-.195-1.463-.585-.36-.389-.555-.949-.584-1.679l-.014-.548.014-.548c.03-.73.224-1.29.584-1.679.36-.39.848-.584 1.463-.584.615 0 1.103.195 1.463.584.36.39.555.95.584 1.68.01.096.015.278.015.547 0 .27-.005.452-.015.548-.029.73-.223 1.29-.584 1.68-.36.389-.848.583-1.463.583zm8.394 1.08c.576 0 1.052-.093 1.427-.28.375-.188.701-.47.98-.844v.649c0 .096.031.175.094.238.062.062.141.093.238.093h.62c.096 0 .175-.03.237-.093.063-.063.094-.142.094-.238v-6.833c0-.096-.031-.176-.094-.238-.062-.063-.141-.094-.238-.094h-.663c-.096 0-.175.031-.238.094-.062.062-.093.142-.093.238v3.993c0 .682-.18 1.218-.54 1.607-.361.39-.849.584-1.464.584-1.268 0-1.903-.73-1.903-2.191v-3.993c0-.096-.03-.176-.093-.238-.063-.063-.142-.094-.238-.094h-.663c-.096 0-.176.031-.238.094-.063.062-.094.142-.094.238v4.065c0 .98.25 1.766.75 2.357.5.591 1.206.886 2.119.886zm7.226-.144c.096 0 .177-.03.245-.093.067-.063.1-.142.1-.238v-4.253c0-.528.152-.946.455-1.254.302-.308.718-.461 1.247-.461h.821c.106 0 .188-.032.245-.094.058-.062.087-.142.087-.238v-.533c0-.106-.029-.188-.087-.245-.057-.058-.14-.087-.245-.087h-.562c-.942 0-1.61.327-2.004.98v-.634c0-.106-.03-.19-.093-.252-.063-.063-.147-.094-.253-.094h-.605c-.096 0-.175.034-.238.101-.062.067-.094.15-.094.245v6.819c0 .096.032.175.094.238.063.062.142.093.238.093h.649zm9.637 0c.096 0 .178-.03.245-.093s.101-.142.101-.238V74.49h5.016v4.152c0 .096.032.175.094.238.062.062.142.093.238.093h.692c.096 0 .178-.03.245-.093s.1-.142.1-.238v-9.414c0-.105-.03-.19-.093-.252-.062-.062-.147-.094-.252-.094h-.692c-.096 0-.176.032-.238.094-.062.063-.094.147-.094.252v4.008h-5.016v-4.008c0-.105-.031-.19-.094-.252-.062-.062-.146-.094-.252-.094h-.692c-.096 0-.173.032-.23.094-.058.063-.087.147-.087.252v9.414c0 .096.029.175.086.238.058.062.135.093.231.093h.692zm12.43.144c.615 0 1.16-.108 1.636-.324.475-.216.843-.473 1.102-.771.26-.298.39-.553.39-.764 0-.077-.032-.14-.094-.188-.062-.048-.137-.072-.223-.072h-.635c-.115 0-.197.012-.245.036-.048.024-.115.094-.202.21-.144.192-.358.377-.641.554-.284.178-.651.267-1.103.267-.586 0-1.057-.22-1.412-.663-.356-.442-.548-.975-.577-1.6v-.13h5.002c.096 0 .175-.031.238-.094.062-.062.093-.141.093-.237v-.26c0-1.153-.29-2.066-.872-2.739-.581-.673-1.4-1.009-2.457-1.009-.98 0-1.764.308-2.35.923-.586.615-.908 1.441-.966 2.48l-.014.475.014.49c.058 1.057.38 1.89.966 2.501.586.61 1.37.915 2.35.915zm2.018-4.425H82.05v-.043c0-.673.178-1.22.533-1.644.356-.423.846-.634 1.47-.634.616 0 1.106.211 1.471.634.365.423.548.97.548 1.644v.043zm4.444 4.281c.096 0 .175-.03.237-.093.063-.063.094-.142.094-.238V69.07c0-.096-.031-.176-.094-.238-.062-.062-.141-.094-.237-.094h-.635c-.096 0-.175.03-.237.087-.063.057-.094.14-.094.245v9.572c0 .096.031.175.094.238.062.062.141.093.237.093h.635zm3.881 2.74c.096 0 .176-.032.238-.094.063-.063.094-.142.094-.238v-3.36c.528.731 1.307 1.096 2.335 1.096 1.01 0 1.766-.321 2.27-.965.505-.644.772-1.456.8-2.437.01-.105.015-.269.015-.49 0-.22-.005-.384-.015-.49-.028-.99-.295-1.804-.8-2.443-.504-.64-1.26-.959-2.27-.959-1.028 0-1.821.37-2.378 1.11v-.634c0-.106-.03-.188-.087-.245-.058-.058-.14-.087-.245-.087h-.605c-.096 0-.176.03-.238.087-.063.057-.094.14-.094.245v9.572c0 .105.031.187.094.245.062.057.142.086.238.086h.648zm2.393-3.72c-.653 0-1.155-.214-1.506-.641-.35-.428-.536-.935-.555-1.521-.01-.102-.014-.28-.015-.534v-.057c0-.254.006-.432.015-.534.02-.605.2-1.131.54-1.578.342-.447.848-.67 1.521-.67 1.365 0 2.047.922 2.047 2.767 0 .183-.005.322-.014.418-.03.702-.202 1.269-.52 1.701-.316.433-.82.65-1.513.65zm5.77 2.062c.183 0 .317-.111.404-.332l.75-1.932c.038-.086.057-.168.057-.245 0-.057-.024-.113-.072-.166-.048-.052-.106-.079-.173-.079h-.923c-.23 0-.365.14-.403.418l-.317 2.033c-.02.086-.008.158.036.216.043.058.108.087.194.087h.447zm8.744-1.082c.096 0 .178-.03.245-.093s.1-.142.1-.238V74.72h4.541c.096 0 .178-.031.245-.094.068-.062.101-.142.101-.238v-.548c0-.096-.03-.175-.093-.237-.063-.063-.147-.094-.253-.094h-4.54v-3.417h4.829c.105 0 .19-.03.252-.093s.094-.142.094-.238v-.534c0-.105-.032-.19-.094-.252-.063-.062-.147-.094-.252-.094h-5.853c-.096 0-.173.032-.23.094-.058.063-.087.147-.087.252v9.414c0 .096.029.175.087.238.057.062.134.093.23.093h.678zm10.498.144c1.057 0 1.871-.297 2.443-.893.572-.596.877-1.389.916-2.379.019-.211.028-.418.028-.62s-.01-.408-.028-.62c-.039-.99-.349-1.782-.93-2.378-.582-.596-1.391-.894-2.43-.894-1.037 0-1.847.298-2.428.894-.581.596-.891 1.389-.93 2.378l-.014.62.014.62c.039.99.344 1.783.916 2.379.571.596 1.386.893 2.443.893zm0-1.08c-.615 0-1.103-.195-1.463-.585-.36-.389-.555-.949-.584-1.679l-.014-.548.014-.548c.029-.73.223-1.29.584-1.679.36-.39.848-.584 1.463-.584.615 0 1.103.195 1.463.584.36.39.555.95.584 1.68.01.096.014.278.014.547v.014c0 .262-.005.44-.014.534-.03.73-.224 1.29-.584 1.68-.36.389-.848.583-1.463.583zm6.577.936c.096 0 .178-.03.245-.093s.101-.142.101-.238v-4.253c0-.528.151-.946.454-1.254.303-.308.718-.461 1.247-.461h.822c.105 0 .187-.032.245-.094.057-.062.086-.142.086-.238v-.533c0-.106-.029-.188-.086-.245-.058-.058-.14-.087-.245-.087h-.563c-.941 0-1.61.327-2.003.98v-.634c0-.106-.031-.19-.094-.252-.062-.063-.146-.094-.252-.094h-.606c-.096 0-.175.034-.237.101-.063.067-.094.15-.094.245v6.819c0 .096.031.175.094.238.062.062.141.093.237.093h.65zm11.915 0c.106 0 .19-.03.252-.093.063-.063.094-.142.094-.238v-3.417l3.474-5.867c.038-.077.058-.14.058-.187 0-.077-.032-.144-.094-.202-.063-.058-.132-.087-.21-.087h-.691c-.154 0-.279.082-.375.246l-2.84 4.713-2.854-4.713c-.077-.164-.202-.246-.374-.246h-.692c-.077 0-.145.03-.202.087-.058.058-.087.125-.087.202 0 .067.015.13.044.187l3.474 5.867v3.417c0 .096.03.175.093.238.063.062.142.093.238.093h.692zm7.615.144c1.057 0 1.872-.297 2.443-.893.572-.596.877-1.389.916-2.379.019-.211.029-.418.029-.62s-.01-.408-.03-.62c-.038-.99-.348-1.782-.929-2.378-.581-.596-1.391-.894-2.429-.894-1.038 0-1.847.298-2.429.894-.581.596-.891 1.389-.93 2.378l-.014.62.014.62c.039.99.344 1.783.916 2.379.572.596 1.386.893 2.443.893zm0-1.08c-.615 0-1.103-.195-1.463-.585-.36-.389-.555-.949-.584-1.679l-.014-.548.014-.548c.029-.73.224-1.29.584-1.679.36-.39.848-.584 1.463-.584.615 0 1.103.195 1.463.584.36.39.555.95.584 1.68.01.096.014.278.014.547v.014c0 .262-.005.44-.014.534-.029.73-.223 1.29-.584 1.68-.36.389-.848.583-1.463.583zm8.394 1.08c.576 0 1.052-.093 1.427-.28.374-.188.701-.47.98-.844v.649c0 .096.031.175.094.238.062.062.141.093.237.093h.62c.096 0 .176-.03.238-.093.063-.063.094-.142.094-.238v-6.833c0-.096-.031-.176-.094-.238-.062-.063-.142-.094-.238-.094H159c-.096 0-.175.031-.238.094-.062.062-.093.142-.093.238v3.993c0 .682-.18 1.218-.54 1.607-.361.39-.849.584-1.464.584-1.269 0-1.903-.73-1.903-2.191v-3.993c0-.096-.031-.176-.093-.238-.063-.063-.142-.094-.238-.094h-.663c-.096 0-.176.031-.238.094-.063.062-.094.142-.094.238v4.065c0 .98.25 1.766.75 2.357.5.591 1.206.886 2.119.886zm7.226-.144c.096 0 .177-.03.245-.093.067-.063.1-.142.1-.238v-4.253c0-.528.152-.946.455-1.254.302-.308.718-.461 1.246-.461h.822c.106 0 .187-.032.245-.094.058-.062.087-.142.087-.238v-.533c0-.106-.03-.188-.087-.245-.058-.058-.14-.087-.245-.087h-.562c-.942 0-1.61.327-2.004.98v-.634c0-.106-.031-.19-.093-.252-.063-.063-.147-.094-.253-.094h-.605c-.096 0-.176.034-.238.101s-.094.15-.094.245v6.819c0 .096.032.175.094.238.062.062.142.093.238.093h.649zm9.637 0c.096 0 .178-.03.245-.093s.1-.142.1-.238V74.49h5.017v4.152c0 .096.031.175.094.238.062.062.142.093.238.093h.692c.096 0 .177-.03.245-.093.067-.063.1-.142.1-.238v-9.414c0-.105-.03-.19-.093-.252s-.147-.094-.252-.094h-.692c-.096 0-.176.032-.238.094-.063.063-.094.147-.094.252v4.008h-5.016v-4.008c0-.105-.031-.19-.094-.252-.062-.062-.146-.094-.252-.094h-.692c-.096 0-.173.032-.23.094-.058.063-.087.147-.087.252v9.414c0 .096.029.175.086.238.058.062.135.093.23.093h.693zm12.43.144c.615 0 1.16-.108 1.636-.324.475-.216.843-.473 1.102-.771.26-.298.39-.553.39-.764 0-.077-.032-.14-.094-.188-.063-.048-.137-.072-.224-.072h-.634c-.115 0-.197.012-.245.036-.048.024-.115.094-.202.21-.144.192-.358.377-.641.554-.284.178-.651.267-1.103.267-.586 0-1.057-.22-1.413-.663-.355-.442-.547-.975-.576-1.6v-.13h5.002c.096 0 .175-.031.238-.094.062-.062.093-.141.093-.237v-.26c0-1.153-.29-2.066-.872-2.739-.581-.673-1.4-1.009-2.457-1.009-.98 0-1.764.308-2.35.923-.586.615-.908 1.441-.966 2.48l-.014.475.014.49c.058 1.057.38 1.89.966 2.501.586.61 1.37.915 2.35.915zm2.018-4.425h-4.022v-.043c0-.673.178-1.22.533-1.644.356-.423.846-.634 1.47-.634.616 0 1.106.211 1.47.634.366.423.549.97.549 1.644v.043zm4.443 4.281c.097 0 .176-.03.238-.093.063-.063.094-.142.094-.238V69.07c0-.096-.031-.176-.094-.238-.062-.062-.141-.094-.238-.094h-.634c-.096 0-.175.03-.238.087-.062.057-.093.14-.093.245v9.572c0 .096.03.175.093.238.063.062.142.093.238.093h.634zm3.882 2.74c.096 0 .176-.032.238-.094.062-.063.094-.142.094-.238v-3.36c.528.731 1.307 1.096 2.335 1.096 1.009 0 1.766-.321 2.27-.965.505-.644.771-1.456.8-2.437.01-.105.015-.269.015-.49v-.014c0-.214-.005-.372-.015-.476-.029-.99-.295-1.804-.8-2.443-.504-.64-1.261-.959-2.27-.959-1.028 0-1.821.37-2.379 1.11v-.634c0-.106-.028-.188-.086-.245-.058-.058-.14-.087-.245-.087h-.606c-.096 0-.175.03-.237.087-.063.057-.094.14-.094.245v9.572c0 .105.031.187.094.245.062.057.141.086.237.086h.65zm2.393-3.72c-.653 0-1.156-.214-1.506-.641-.351-.428-.536-.935-.555-1.521-.01-.106-.015-.293-.015-.562v-.015c0-.261.005-.444.015-.548.019-.605.2-1.131.54-1.578.341-.447.848-.67 1.521-.67 1.365 0 2.047.922 2.047 2.767 0 .183-.005.322-.015.418-.028.702-.201 1.269-.518 1.701-.318.433-.822.65-1.514.65z" transform="translate(0 98.285)"/>
            <g>
                <g>
                    <path d="M21.469 10.668l4.382 2.838-5.649 5.233-3.215-2.678-3.329-1.413 5.25-2.375c1.18-1.685 1.987-1.894 2.56-1.605zM4.197 9.49l1.869.229c.502.084.61.242.616.303.11.54-.237.75-.534.721l-2.154-.18c-.732-.08-.53-1.166.203-1.073zm-.013-2.32l2.651.5c.704.14.78.364.853.49.127.808-.35 1.05-.831.98l-3.064-.46c-.927-.17-.67-1.698.391-1.51zm.91-2.853l2.983 1.305c.771.373.87.608.87.808-.179.933-.816 1.1-1.243.933l-3.48-1.368c-1.034-.373-.324-2.152.87-1.678zm2.11-1.979c0 1.39 1.493 1.613 2.239 1.551l.249.497c-.1.744-.792.888-1.12.744l-2.238-.992c-.87-.463-1.227-.901-1.11-1.26.444-1.161 1.483-.809 1.98-.54zM11.677.107l1.613 1.115-3.723 1.983c-1.241.348-1.717-.392-1.8-.805L10.746.23c.447-.346.807-.226.93-.123z" transform="translate(0 98.285) translate(173.162) translate(1.44 .012)"/>
                    <path d="M3.987 11.278L0 13.796l5.466 5.126 4.048-3.17 7.329-3.294c1.291-.348 1.863-.932 1.987-1.18l2.236-2.61c.742-.916-.096-1.823-1.242-1.12l-1.429.87c-.414.171-.624-.298-.31-.496l2.36-1.554c1.1-1.045.081-2.051-1.118-1.43L17.153 6.12c-.368.158-.516-.25-.31-.372l2.484-1.803c1.175-.808.168-2.168-1.118-1.491l-2.05 1.056c-.372.14-.533-.247-.31-.373l1.863-1.242c.971-.59.128-1.894-.87-1.43l-6.707 3.232c.398 1.094-.414 1.823-.87 2.05.498 1.442-.455 2.134-.993 2.3.199 1.143-.58 1.637-.994 1.74.199.696-.29 1.284-.559 1.492H3.987z" transform="translate(0 98.285) translate(173.162) translate(1.44 .012)"/>
                </g>
                <path d="M0 11.906c8.517 7.627 13.477 15.744 29.166-.542C22.508 22.959 10.76 30.024 0 11.906z" transform="translate(0 98.285) translate(173.162)"/>
            </g>
            <path d="M165.77 23.488c1.982 0 3.802.248 5.461.744 1.66.496 2.984 1.068 3.975 1.717.635.41 1.188.934 1.63 1.548.4.572.6 1.298.6 2.176v22.093c0 1.947-.352 3.626-1.058 5.037-.67 1.37-1.661 2.558-2.888 3.463-1.22.896-2.65 1.554-4.288 1.975-1.74.431-3.525.643-5.317.63-1.982 0-3.707-.182-5.174-.544-1.468-.363-2.564-.773-3.287-1.23-1.258-.802-1.887-1.87-1.887-3.206 0-.725.152-1.355.458-1.89.257-.483.63-.896 1.086-1.2.991.609 2.192 1.143 3.602 1.601 1.46.466 2.985.698 4.518.687 2.288 0 4.08-.439 5.376-1.316 1.296-.878 1.944-2.29 1.945-4.236l-.005-2.46c-.851.414-1.742.74-2.66.973-1.01.267-2.182.4-3.516.4-1.648.011-3.287-.23-4.862-.715-1.494-.459-2.862-1.253-4.003-2.322-1.143-1.068-2.048-2.451-2.717-4.15-.668-1.697-1.001-3.768-1-6.21 0-2.212.333-4.168 1-5.866.667-1.7 1.62-3.12 2.86-4.265 1.276-1.167 2.787-2.045 4.432-2.576 1.716-.572 3.622-.858 5.72-.858zm-52.73.25c.992 0 1.85.229 2.575.686.724.458 1.087 1.201 1.087 2.231 0 1.144-.248 2.756-.744 4.834-.497 2.079-1.154 4.31-1.974 6.693-.82 2.385-1.744 4.787-2.774 7.207-.914 2.182-1.946 4.312-3.094 6.38-1.984 3.508-3.786 6.13-5.406 7.865-1.62 1.736-3.213 2.603-4.777 2.603-1.221 0-2.203-.353-2.946-1.058-.745-.71-1.238-1.644-1.402-2.66.61-.534 1.259-1.153 1.946-1.858.687-.705 1.373-1.459 2.06-2.26.686-.8 1.334-1.621 1.945-2.46.578-.79 1.112-1.611 1.6-2.46-.344-.114-.68-.258-1-.429-.364-.203-.693-.464-.973-.773-.377-.41-.721-.85-1.03-1.316-.428-.655-.801-1.345-1.115-2.062-.915-1.906-2.002-4.48-3.26-7.722-1.26-3.242-2.516-7.17-3.771-11.783.38-.458.915-.849 1.602-1.173.698-.325 1.46-.49 2.23-.483.992 0 1.802.228 2.432.686.63.458 1.135 1.278 1.516 2.46 1.791 5.758 3.832 11.591 6.12 17.499h.23c.495-1.258 1.019-2.688 1.573-4.29.553-1.601 1.087-3.28 1.602-5.034.515-1.753 1.002-3.526 1.459-5.317.457-1.79.857-3.526 1.2-5.205.47-.233.957-.425 1.46-.572.53-.155 1.078-.232 1.63-.23zM13.156 15.78c1.485-.01 2.969.115 4.432.372 1.353.248 2.526.592 3.517 1.03.992.439 1.765.982 2.32 1.63.533.6.828 1.373.829 2.175 0 .764-.181 1.423-.543 1.975-.348.538-.807.997-1.345 1.345-.914-.645-2.124-1.208-3.63-1.688-1.507-.48-3.156-.72-4.947-.716-1.982 0-3.488.355-4.517 1.064-1.03.71-1.546 1.673-1.547 2.89 0 .992.353 1.755 1.057 2.289.705.533 1.82 1.049 3.346 1.547l3.26 1.03c3.316.992 5.89 2.347 7.719 4.062 1.829 1.716 2.744 4.044 2.745 6.983 0 1.565-.305 2.995-.915 4.291-.617 1.306-1.527 2.451-2.659 3.348-1.163.935-2.613 1.66-4.349 2.175-1.736.514-3.708.772-5.918.774-1.623.012-3.242-.142-4.833-.459-1.468-.305-2.736-.716-3.803-1.23-1.067-.515-1.896-1.125-2.488-1.831C.295 48.131 0 47.357 0 46.516c0-.878.258-1.631.773-2.26.481-.604 1.099-1.085 1.802-1.403.952.838 2.21 1.612 3.774 2.321 1.564.71 3.395 1.058 5.494 1.046 2.21 0 3.83-.43 4.86-1.289 1.031-.858 1.546-1.936 1.547-3.232 0-1.183-.4-2.128-1.2-2.833-.8-.705-2.02-1.306-3.66-1.803l-3.665-1.14c-1.351-.42-2.67-.936-3.946-1.547-1.107-.52-2.129-1.205-3.031-2.03-.831-.772-1.493-1.707-1.944-2.748C.346 28.55.117 27.301.118 25.85c0-3.09 1.163-5.54 3.488-7.35 2.325-1.811 5.508-2.717 9.549-2.72zm28.956 7.707c3.74 0 6.724.8 8.953 2.402 2.23 1.602 3.346 4.08 3.347 7.436V46.54c0 .914-.229 1.639-.686 2.173-.493.564-1.073 1.047-1.717 1.43-1.067.65-2.421 1.165-4.061 1.547-1.64.382-3.51.573-5.609.571-3.815 0-6.818-.734-9.01-2.202s-3.288-3.67-3.288-6.606c0-2.554.811-4.509 2.432-5.864 1.622-1.354 3.977-2.184 7.066-2.488l7.838-.8v-1.03c0-1.449-.524-2.516-1.573-3.203-1.049-.687-2.53-1.03-4.441-1.027-1.468-.003-2.93.18-4.352.543-1.298.323-2.561.773-3.77 1.344-.442-.326-.805-.746-1.064-1.23-.287-.515-.435-1.097-.43-1.687 0-.762.182-1.382.545-1.859.363-.477.943-.906 1.74-1.287 1.213-.487 2.479-.833 3.771-1.03 1.425-.231 2.866-.348 4.31-.347zm91.61 0c2.097 0 4.004.333 5.722 1 1.667.636 3.18 1.621 4.434 2.89 1.264 1.296 2.239 2.845 2.861 4.545.669 1.776 1.003 3.75 1.004 5.924 0 2.214-.334 4.207-1.002 5.98-.668 1.771-1.612 3.286-2.832 4.544-1.24 1.272-2.745 2.258-4.406 2.89-1.716.667-3.643 1-5.78 1-2.136 0-4.064-.332-5.781-.997-1.656-.627-3.159-1.603-4.406-2.86-1.22-1.24-2.165-2.746-2.833-4.52-.667-1.773-1-3.785-1.001-6.037 0-2.21.333-4.203 1.001-5.977.668-1.775 1.622-3.281 2.861-4.521 1.262-1.253 2.773-2.228 4.436-2.86 1.717-.668 3.624-1.001 5.721-1.001zM64.34 13.78c1.336 0 2.327.249 2.976.745.649.497.973 1.374.973 2.632v7.896c.927-.452 1.894-.816 2.89-1.087 1.184-.317 2.407-.47 3.633-.457 3.472 0 6.237.896 8.297 2.69 2.06 1.793 3.09 4.5 3.09 8.123v17.054c-.305.075-.753.172-1.344.29-.632.118-1.274.175-1.917.171-1.373 0-2.384-.248-3.033-.743-.648-.496-.972-1.375-.97-2.637v-13.79c0-1.907-.496-3.29-1.487-4.148-.992-.858-2.29-1.288-3.892-1.288-.975-.01-1.943.154-2.86.483-.84.306-1.646.7-2.404 1.173v20.489c-.346.075-.805.17-1.377.286-.641.12-1.293.178-1.945.171-1.336 0-2.327-.248-2.975-.743-.648-.496-.973-1.374-.973-2.633V14.24c.437-.147.887-.252 1.344-.315.653-.1 1.314-.148 1.975-.144zM187.559 24.07c1.374 0 2.376.248 3.006.745.63.496.944 1.374.944 2.632v23.93c-.306.076-.754.173-1.345.29-.633.119-1.275.176-1.918.172-1.374 0-2.376-.248-3.006-.744-.63-.496-.945-1.374-.945-2.633V24.53c.306-.076.754-.173 1.346-.29.632-.118 1.275-.176 1.918-.172zM47.374 39.33l-5.55.515c-1.525.153-2.688.486-3.489 1.001-.8.515-1.201 1.326-1.202 2.43 0 1.108.41 1.966 1.23 2.575.82.61 2.144.915 3.972.916h.004c1.02.01 2.037-.096 3.033-.314.915-.209 1.583-.467 2.002-.774v-6.349zm86.348-10.123h-.004c-2.063 0-3.684.754-4.863 2.26-1.18 1.507-1.77 3.634-1.774 6.382 0 2.785.58 4.921 1.74 6.409 1.161 1.487 2.792 2.23 4.894 2.231 2.097 0 3.728-.753 4.892-2.26 1.165-1.506 1.745-3.633 1.741-6.382 0-2.746-.591-4.873-1.774-6.382-1.182-1.508-2.8-2.26-4.852-2.258zm32.276.01c-2.096 0-3.783.639-5.06 1.917-1.278 1.279-1.917 3.253-1.916 5.925 0 1.45.16 2.672.483 3.663.322.992.78 1.793 1.373 2.404.578.603 1.294 1.055 2.087 1.317.832.272 1.702.407 2.576.4v-.002c1.106 0 2.05-.153 2.831-.459.721-.272 1.404-.637 2.03-1.087V30.363c-.59-.33-1.213-.599-1.859-.802-.709-.228-1.557-.343-2.545-.343z" transform="translate(0 98.285)"/>
        </g>
    </g>
</svg>
