<?xml version="1.0" encoding="UTF-8"?>
<svg width="22px" height="16px" viewBox="0 0 22 16" version="1.1" xmlns="http://www.w3.org/2000/svg" xmlns:xlink="http://www.w3.org/1999/xlink">
    <title>back</title>
    <g id="Page-1" stroke="none" stroke-width="1" fill="none" fill-rule="evenodd">
        <g id="Profile-Screen_5.9.3" transform="translate(-15.000000, -44.000000)" fill="#666666" fill-rule="nonzero" stroke="#666666">
            <g id="back" transform="translate(16.000000, 45.000000)">
                <path d="M6.42109375,0.208125 C6.69859375,-0.069375 7.13546875,-0.069375 7.41296875,0.208125 C7.68109375,0.47625 7.68109375,0.9225 7.41296875,1.19 L2.38359375,6.219375 L18.9798438,6.219375 C19.3667188,6.219375 19.6842187,6.526875 19.6842187,6.91375 C19.6842187,7.300625 19.3667188,7.618125 18.9798438,7.618125 L2.38359375,7.618125 L7.41296875,12.638125 C7.68109375,12.915625 7.68109375,13.3625 7.41296875,13.63 C7.13546875,13.9075 6.69859375,13.9075 6.42109375,13.63 L0.20109375,7.41 C-0.06703125,7.141875 -0.06703125,6.695625 0.20109375,6.428125 L6.42109375,0.208125 Z" id="Path"></path>
            </g>
        </g>
    </g>
</svg>