<?xml version="1.0" encoding="UTF-8"?>
<svg width="18px" height="20px" viewBox="0 0 18 20" version="1.1" xmlns="http://www.w3.org/2000/svg" xmlns:xlink="http://www.w3.org/1999/xlink">
    <title>Cart</title>
    <g id="Page-1" stroke="none" stroke-width="1" fill="none" fill-rule="evenodd">
        <g id="Category-Chasmeywala-Product-List_1_No-Wishlist-Shopping-Bag" transform="translate(-328.000000, -42.000000)" fill="#FF7D01" fill-rule="nonzero">
            <path d="M337.517484,42 C339.411544,42 340.496658,43.6394741 341.053131,46.2212028 L341.074721,46.332 L342.115131,46.3326333 C343.435852,46.3326333 344.551119,47.285678 344.764221,48.5654958 L344.786844,48.7342302 L345.731011,57.9895919 C345.743476,58.1117837 345.749721,58.2345243 345.749721,58.3573435 C345.749721,60.3691271 344.110208,62 342.087767,62 L342.087767,62 L332.411987,62 C332.279807,62 332.147724,61.992881 332.016318,61.9786744 C330.005716,61.7613036 328.552949,59.9637647 328.771472,57.9637589 L328.771472,57.9637589 L329.781968,48.715286 C329.930083,47.359673 331.080859,46.3326333 332.451679,46.3326333 L332.451679,46.3326333 L333.758685,46.3316085 C334.299566,43.4924335 335.522518,42 337.517484,42 Z M342.115131,47.7896959 L341.313814,47.7906403 C341.399353,48.5003232 341.438677,49.1676793 341.446869,49.7338874 L341.448412,50.0162484 C341.4453,50.4272032 341.114922,50.7508962 340.710445,50.747868 C340.339675,50.7450512 340.035344,50.4686716 339.989559,50.1127195 L339.983626,50.0138146 C339.985978,49.4072236 339.945971,48.6238715 339.837191,47.7904215 L335.020679,47.7884333 C334.950949,48.4541545 334.909864,49.2000072 334.898856,50.0283109 C334.893508,50.4306325 334.5613,50.7524668 334.156847,50.7471479 C333.752394,50.741829 333.428855,50.4113711 333.434136,50.0090495 C333.444735,49.2123191 333.483692,48.4720944 333.551829,47.7897064 L332.451679,47.7896959 C331.828579,47.7896959 331.305499,48.2565321 331.238174,48.8727198 L331.238174,48.8727198 L330.227678,58.1211928 C330.096564,59.3211962 330.968225,60.3997196 332.174585,60.5301421 C332.253429,60.538666 332.332679,60.5429374 332.411987,60.5429374 L332.411987,60.5429374 L342.087767,60.5429374 C343.301231,60.5429374 344.284939,59.5644137 344.284939,58.3573435 C344.284939,58.283652 344.281192,58.2100076 344.273713,58.1366926 L344.273713,58.1366926 L343.329546,48.8813308 C343.266303,48.2613867 342.74156,47.7896959 342.115131,47.7896959 L342.115131,47.7896959 Z M337.517484,43.4570626 C336.442951,43.4570626 335.662489,44.3783775 335.244689,46.3321462 L339.576721,46.332 L339.566135,46.2843878 C339.134428,44.4623259 338.431013,43.4570626 337.517484,43.4570626 Z" id="Cart"></path>
        </g>
    </g>
</svg>