<?xml version="1.0" encoding="UTF-8"?>
<svg width="44px" height="50px" viewBox="0 0 44 50" version="1.1" xmlns="http://www.w3.org/2000/svg" xmlns:xlink="http://www.w3.org/1999/xlink">
    <title>Group 12</title>
    <g id="Page-1" stroke="none" stroke-width="1" fill="none" fill-rule="evenodd">
        <g id="Category-Chasmeywala-List" transform="translate(-48.000000, -401.000000)" fill-rule="nonzero">
            <g id="Group-3" transform="translate(17.000000, 380.000000)">
                <g id="Group-12" transform="translate(31.000000, 21.000000)">
                    <path d="M23.449641,37.2314852 C23.449641,37.2314852 18.9551869,25 35.7253105,21.5616002 C41.9591725,20.2834635 23.449641,37.2314852 23.449641,37.2314852 Z" id="Path-26" fill="#FF7D01"></path>
                    <path d="M43.75,5.17101296 C43.75,1.61806866 35.7040327,0 28.2286329,0 C20.753233,0 12.7072712,1.61804087 12.7072712,5.17101296 C12.7072712,7.33538833 14.4256799,12.6102641 21.1051182,14.8704552 C19.1233184,15.6180801 17.3291553,16.7955362 15.8498519,18.319331 L0.285833481,34.6863305 C-0.107510853,35.1002574 -0.0930995587,35.7568558 0.318022008,36.1528841 C0.729143575,36.5489125 1.38129204,36.5344028 1.77463637,36.120476 L17.3354147,19.7570888 C19.7599881,17.2861788 23.0727386,15.9055514 26.5225167,15.9282569 C30.1997513,15.8870353 33.7127488,17.4591264 36.1463483,20.2349891 C32.91172,20.3426532 28.0245284,22.0879259 24.4840995,25.4762369 C20.9043808,28.6714493 19.9411868,34.5075868 22.2186541,38.059553 L12.9760619,48.2644882 C12.7281835,48.5383238 12.644246,48.9245081 12.7558714,49.2775522 C12.8674967,49.6305964 13.1577242,49.8968572 13.5172152,49.9760253 C13.8767061,50.0551934 14.2508379,49.9352395 14.4986623,49.6613544 L39.1781693,22.4130858 C39.2551664,22.3264773 39.3170519,22.2273749 39.3612048,22.1199757 C39.3732765,22.091516 39.3759922,22.0618394 39.3853979,22.0325739 C39.4142636,21.9463103 39.4316006,21.8565631 39.4369526,21.7656949 C39.4381394,21.723817 39.4367106,21.6819055 39.4326747,21.6402081 C39.426787,21.5599908 39.4114731,21.4807593 39.3870539,21.4041728 C39.3750827,21.3619599 39.3603457,21.3205924 39.3429399,21.2803421 C39.3332306,21.2592239 39.3310172,21.2361827 39.319801,21.2155202 C37.9452998,18.7183976 35.8445637,16.7047008 33.2998977,15.4450381 C41.7299084,13.7066733 43.75,7.71511657 43.75,5.17101296 Z M25.8771344,27.0043585 C29.6619069,23.3825798 34.3185157,22.2957017 36.5160845,22.273522 L23.6779318,36.44837 C22.4298184,33.8685377 22.9731623,29.5973619 25.8771344,27.0043585 Z M28.2286329,2.07421159 C37.1099398,2.07421159 41.6898183,4.24486686 41.6898183,5.17098517 C41.6898183,6.09710349 37.1099453,8.2677532 28.2286329,8.2677532 C19.3473205,8.2677532 14.7674529,6.09709793 14.7674529,5.17101296 C14.7674529,4.24492799 19.347326,2.07421159 28.2286329,2.07421159 Z M28.2286329,13.8540175 C20.924401,13.8540175 17.3853796,11.0129303 15.8316422,8.44600784 C18.8583849,9.73344818 23.6489585,10.3419926 28.2286329,10.3419926 C32.8445224,10.3419926 37.6754842,9.72407835 40.6978553,8.41562536 C39.1890874,11.0103461 35.6671607,13.8540175 28.2286329,13.8540175 Z" id="Shape" fill="#333333"></path>
                </g>
            </g>
        </g>
    </g>
</svg>