<?xml version="1.0" encoding="UTF-8"?>
<svg width="83px" height="63px" viewBox="0 0 83 63" version="1.1" xmlns="http://www.w3.org/2000/svg" xmlns:xlink="http://www.w3.org/1999/xlink">
    <title>Group 3</title>
    <g id="Page-1" stroke="none" stroke-width="1" fill="none" fill-rule="evenodd">
        <g id="Group-35" transform="translate(-38.000000, -10.000000)" fill-rule="nonzero">
            <g id="Group-3" transform="translate(39.000000, 11.000000)">
                <g id="Group" transform="translate(53.091549, 49.147887) scale(-1, 1) translate(-53.091549, -49.147887) translate(24.591549, 36.647887)">
                    <path d="M2.71302817,18.2318234 C3.89260563,19.529882 5.77992958,20.1789113 8.43397887,20.1789113 L46.1804577,20.1789113 C50.1910211,20.1789113 52.6681338,19.883898 56.2658451,18.2318234 C56.0299296,16.6387514 53.7887324,15.1636848 42.2288732,12.6265702 C41.9929577,12.5675676 41.7570423,12.5085649 41.5801056,12.4495622 L40.4005282,14.9866768 C40.1646127,15.4586981 39.6927817,15.7537115 39.2209507,15.7537115 C39.0440141,15.7537115 38.8670775,15.6947088 38.631162,15.6357061 C37.9823944,15.3406928 37.6875,14.5146555 37.9823944,13.8656262 L39.0440141,11.6235249 C37.9823944,11.2105063 36.8617958,10.6794823 35.8001761,10.0894557 L34.5616197,12.6855729 C34.3257042,13.1575942 33.8538732,13.4526075 33.3820423,13.4526075 C33.2051056,13.4526075 33.028169,13.3936049 32.7922535,13.3346022 C32.1434859,13.0395889 31.8485915,12.2135516 32.1434859,11.5645223 L33.4410211,8.79139703 C32.3794014,8.20137038 31.3767606,7.55234107 30.3741197,6.90331176 L28.7227113,10.384469 C28.4867958,10.8564903 28.0149648,11.1515036 27.5431338,11.1515036 C27.3661972,11.1515036 27.1892606,11.092501 26.9533451,11.0334983 C26.3045775,10.738485 26.0096831,9.91244766 26.3045775,9.26341835 L28.1329225,5.42824515 C24.2403169,2.8321279 20.9375,0.472021317 19.2860915,0.177007994 C17.8705986,1.94708793 19.522007,5.60525314 19.522007,5.60525314 C19.522007,5.60525314 17.5757042,8.8503997 13.4471831,8.8503997 C9.31866197,8.8503997 8.55193662,4.48420251 6.36971831,3.42215455 C4.95422535,3.71716787 2.24119718,9.73543967 1.47447183,14.6916635 C1.47447183,15.2226875 1.5334507,16.8747621 2.71302817,18.2318234 Z" id="Path" stroke="#FFFFFF" stroke-width="1.3"></path>
                    <path d="M46.2394366,21.1629235 L8.49295775,21.1629235 C5.30809859,21.1629235 2.88996479,20.2778835 1.35651408,18.5668062 C1.06161972,18.2127903 0.825704225,17.9177769 0.648767606,17.5637609 C0.412852113,18.0947849 0.353873239,18.8028169 0.353873239,20.2188809 C0.353873239,22.8149981 2.53609155,24.8800914 5.13116197,24.8800914 L43.8213028,24.8800914 C53.8477113,24.8800914 56.5148827,21.764988 56.8687559,19.1098681 C53.4808853,20.6277471 50.1320423,21.1629235 46.2394366,21.1629235 Z" id="Path" fill="#FFFFFF"></path>
                </g>
                <g id="Group">
                    <path d="M14.2083269,20.6454705 C17.0499923,23.5144595 23.2347934,33.527794 26.633648,34.6528877 C30.0325027,35.7779815 37.8331528,36.1717643 44.8537378,34.6528877 C44.8537378,34.6528877 42.7364185,28.5211268 44.8537378,28.1273439 L37.4431203,22.9519127 C37.4431203,22.9519127 33.9885467,28.6898908 30.0882216,26.6084674 C26.1878966,24.4707892 5.79476861,0.281273439 5.79476861,0.281273439 L3.90032503,2.02516876 C3.90032503,2.02516876 10.7537533,12.263522 13.0382294,18.0015001 L14.2083269,20.6454705 Z" id="Path" stroke="#FFFFFF" stroke-width="1.3"></path>
                    <path d="M45.5780839,34.1465955 C45.5780839,34.1465955 49.8684414,33.6403034 50.1470361,32.3464455 C50.4256307,31.0525877 44.8537378,30.5462955 44.8537378,30.5462955 L45.5780839,34.1465955 Z" id="Path" stroke="#FFFFFF" stroke-width="1.3"></path>
                    <path d="M28.1937781,36.1717643 C22.733323,35.5529627 18.9444358,28.3523627 14.9883919,23.1206767 C11.0323479,17.8889907 0,15.3012751 0,15.3012751 L1.05865965,38.75948 C1.11437858,39.659555 1.89444358,40.3908659 2.78594645,40.3346112 C12.6481969,39.8845737 18.6658412,41.1784315 21.1174741,41.9097425 C22.733323,42.35978 24.4048909,42.7535628 26.0764588,42.9785815 C38.3903421,44.7787316 45.8566785,42.2472706 48.7540628,40.8971581 C49.5898468,40.5033753 50.1470361,39.659555 50.1470361,38.7032253 L50.1470361,33.9215768 C44.8537378,36.8468206 33.6542331,36.8468206 28.1937781,36.1717643 Z" id="Path" fill="#FFFFFF"></path>
                    <path d="M0.835783934,14.4574548 C5.68333075,15.132511 12.4253212,18.9015751 12.4253212,18.9015751 C11.3666615,16.3138595 9.97368828,13.6136345 9.97368828,13.6136345 C9.97368828,13.6136345 7.41061755,12.3760313 3.28741681,12.263522 C1.56013001,12.2072673 0.668627148,12.6010501 0.278594645,13.0510876 C-0.167156787,13.5573798 0.167156787,14.3449454 0.835783934,14.4574548 Z" id="Path" stroke="#FFFFFF" stroke-width="1.3"></path>
                </g>
            </g>
        </g>
    </g>
</svg>