<?xml version="1.0" encoding="UTF-8"?>
<svg width="82px" height="30px" viewBox="0 0 82 30" version="1.1" xmlns="http://www.w3.org/2000/svg" xmlns:xlink="http://www.w3.org/1999/xlink">
    <title>Shape</title>
    <g id="Page-1" stroke="none" stroke-width="1" fill="none" fill-rule="evenodd">
        <g id="Category-Chasmeywala-List" transform="translate(-139.000000, -268.000000)" fill="#333333" fill-rule="nonzero">
            <g id="Group-3" transform="translate(129.000000, 241.000000)">
                <path d="M54.9062181,29.1380581 C52.070606,29.4670771 49.1937962,29.4670771 46.3581841,29.1380581 C45.8604366,29.0803877 45.3582077,29.0242379 44.8431888,28.9685628 L41.9177514,28.6729747 L40.5148356,28.5489087 L39.1340428,28.4357561 L37.7855637,28.3357497 L36.4691702,28.2486719 C36.2524325,28.2352242 36.0370221,28.2223062 35.8229344,28.2099132 L34.554242,28.1418207 L33.3170654,28.0861131 C33.113483,28.0778485 32.9112042,28.0700909 32.7102244,28.0628358 L31.5198942,28.025298 C31.1282877,28.014771 30.741839,28.0062177 30.3605099,27.9996016 L29.2318438,27.9855291 C28.6751522,27.9813626 28.1298945,27.9814735 27.5959423,27.9857395 L26.5430741,27.9997755 C26.1971174,28.0062767 25.8561474,28.0145883 25.5201261,28.0246742 L24.5268705,28.0602184 C24.3637896,28.0670174 24.2019364,28.074251 24.0413061,28.0819145 L23.0921617,28.1330189 C22.9364042,28.1423842 22.7818601,28.1521703 22.6285247,28.1623729 L21.7229786,28.2285484 L20.8462131,28.3044994 L19.9980003,28.3900085 C19.441992,28.4501523 18.9048669,28.5165231 18.3863211,28.5888312 L17.6223987,28.7017098 C16.6223136,28.8580551 15.6959377,29.0375692 14.8408397,29.2379324 L14.2128429,29.3920778 L13.6113473,29.5538242 C13.4152403,29.6089823 13.2235123,29.665371 13.0361251,29.7229541 L12.4869483,29.89925 L11.9635891,30.0824946 C11.7083258,30.1758178 11.4626586,30.2716652 11.2264594,30.3699145 C10.4805296,30.6802185 10,31.4092243 10,32.2194578 L10,36.0178836 C10,36.5610726 10.2169668,37.0746752 10.6056972,37.4542394 C10.9481713,37.7879828 11.3918664,37.9823069 11.862709,38.0193007 L12.0404028,38.0257636 C12.0864798,38.0247718 12.1017065,38.0308707 12.1208905,38.0499722 C12.1359159,38.0649745 12.1462853,38.0908328 12.1457455,38.1138423 C12.0397852,42.6947266 12.8649589,46.4962281 14.6285179,49.4489426 L14.7254187,49.6083736 L14.9388039,49.9427577 L15.0879169,50.1638109 L15.2653988,50.4152446 C15.6924503,51.0111092 16.1441153,51.551347 16.6284977,52.0392651 C16.9161163,52.329175 17.2207626,52.6019253 17.5812855,52.8990277 L17.7428536,53.0304117 L18.0395961,53.2614781 L18.3788917,53.5049477 C18.4221125,53.534874 18.4683361,53.5666119 18.518725,53.6010151 C20.0191514,54.6244353 21.6529742,55.2933953 23.319803,55.6786797 C24.254801,55.8948027 25.0239284,55.9893271 25.6446421,56.0175079 L25.8942887,56.0256657 C32.1317375,56.3133376 37.08679,55.5972772 41.0370034,53.8140471 C44.4439987,52.2761962 46.9057956,49.135842 47.6264907,45.4144171 C48.0449466,43.2550253 48.3224691,40.7362348 48.490297,38.1404306 C48.5602549,37.0642083 49.3911755,36.1683705 50.3920215,36.0601337 C50.4735652,36.0514008 50.5554554,36.0469704 50.6354946,36.0469704 C51.1439882,36.0469704 51.6225281,36.2209027 52.0135411,36.5490437 C52.464645,36.9280784 52.7305019,37.4531757 52.7678389,38.0385676 C52.9345441,40.6686404 53.2143454,43.2267605 53.6381072,45.4144561 C54.3585347,49.1355619 56.8203376,52.2758677 60.2273671,53.8140328 C64.0434417,55.5364345 68.7991929,56.2638106 74.7351198,56.051556 L75.3534009,56.0262491 C75.9908223,56.0174946 76.8836478,55.9223819 77.9450277,55.6763753 C79.6136501,55.2896222 81.2477666,54.6204226 82.7454919,53.599837 L82.9631386,53.4503062 L83.2239563,53.2620693 L83.5532146,53.0043959 C83.5938039,52.9715151 83.6364829,52.9366476 83.6820064,52.8992234 C84.0475315,52.5982664 84.3567793,52.3212643 84.6484382,52.0267533 C85.1286509,51.5413986 85.5764003,51.0051396 85.9991077,50.4151739 L86.1807896,50.1581192 L86.3264553,49.9419237 C86.4379163,49.7714332 86.5398658,49.6090443 86.6357281,49.448386 C88.3992977,46.4959895 89.2246216,42.6944017 89.1184751,38.1145029 C89.1179471,38.0913679 89.1283151,38.0655065 89.1439553,38.0499057 L89.1770591,38.0245808 C89.7571022,38.028921 90.2728766,37.8295182 90.6571277,37.4557807 C91.047295,37.0755441 91.264214,36.5614869 91.264214,36.0180713 L91.264214,32.2196456 C91.264214,31.4094142 90.784071,30.6801925 90.0383264,30.369808 L89.5830778,30.1878698 L89.1065205,30.0118531 L88.6084808,29.8419196 L88.0887849,29.6782306 C87.823494,29.5979742 87.5500169,29.5201201 87.2682559,29.4447591 L86.6936596,29.2973883 L86.0967991,29.1568273 L85.4775007,29.0232376 L84.8355906,28.8967808 L84.1708951,28.7776183 L83.4832405,28.6659117 L82.7724531,28.5618224 L82.0383591,28.465512 L81.2807847,28.3771419 C81.152556,28.3630842 81.0233417,28.3493641 80.8931382,28.335985 L80.1000177,28.2598282 C79.9658428,28.2478262 79.8306716,28.236172 79.6945003,28.2248687 L78.8654426,28.1612887 C78.7252566,28.151403 78.5840632,28.1418751 78.441859,28.1327084 L77.5764734,28.0820684 L76.686652,28.0402569 C76.5363024,28.034033 76.3849275,28.0281837 76.2325235,28.0227124 L75.3057226,27.9944466 C75.1491881,27.9905006 74.9916174,27.9869391 74.8330068,27.9837658 L73.8688355,27.9694091 C73.7060509,27.9678014 73.5422192,27.9665884 73.3773367,27.9656893 L72.3754042,27.9656893 L71.3480804,27.9753218 C71.0013879,27.9801701 70.6504346,27.9866647 70.2951915,27.9948327 L69.2165638,28.0243834 C69.034638,28.0301541 68.8516325,28.0363499 68.6675437,28.0429741 L67.5499821,28.0878873 L66.4062473,28.1432441 C66.2134342,28.1533495 66.0195232,28.1638967 65.8245108,28.1748893 L64.6411907,28.2462142 C64.4417582,28.2590011 64.2412171,28.27224 64.0395637,28.2859343 L62.8162673,28.3735907 L61.5661028,28.4723367 C61.3554934,28.4897275 61.1437573,28.5075871 60.9308908,28.5259188 L59.6400986,28.6416019 L58.322004,28.7687784 L56.9764334,28.9076096 L55.6032129,29.0582572 L54.9062181,29.1380581 Z M89.2654589,32.2146169 L89.2643143,36.0206999 L89.2554018,36.0243945 L89.2352556,36.0259819 C88.6990341,35.9966152 88.1424708,36.2229036 87.7305824,36.6348526 C87.3281856,37.0362341 87.1059914,37.5904636 87.119004,38.1604953 C87.217004,42.3889007 86.4713515,45.8235079 84.9184808,48.423173 L84.7465347,48.7017382 L84.5583147,48.9878923 L84.3732573,49.2504377 C84.010272,49.7570503 83.6300369,50.2124489 83.2270369,50.6197643 C82.9882186,50.8609178 82.7277195,51.0942543 82.4113369,51.3547499 L82.19958,51.5263393 L81.9580714,51.7107878 L81.6201744,51.9464589 C80.3413434,52.8178839 78.9344708,53.3940231 77.4934393,53.7280253 C76.6831601,53.9158317 75.9980891,54.0000888 75.5066919,54.0212985 L75.3060375,54.0265644 C69.3269099,54.3015094 64.6781257,53.6286177 61.0502351,51.9911537 C58.2379726,50.7215069 56.1992185,48.1208472 55.6016282,45.0342123 C55.1969401,42.944986 54.9256019,40.4642409 54.7638083,37.9116585 C54.6916335,36.7800561 54.1690594,35.7479133 53.2996758,35.0174245 C52.5477279,34.3863843 51.6138987,34.0469704 50.6354946,34.0469704 C50.4838341,34.0469704 50.3308629,34.0552464 50.1780109,34.0716171 C48.1959167,34.2859708 46.6266516,35.9778376 46.4944865,38.0110455 C46.3316245,40.5300406 46.0625426,42.9722251 45.6629949,45.0340435 C45.0651586,48.1210674 43.0264147,50.7217602 40.2141473,51.9911626 C36.709003,53.5734769 32.2526638,54.2545635 26.5776684,54.0521017 L25.9164533,54.0256047 C25.3838463,54.0142352 24.6742459,53.9390224 23.770223,53.7300592 C22.3317016,53.3975477 20.9258155,52.8219151 19.646077,51.9490232 L19.326091,51.7253207 L19.1202874,51.5700852 L18.8523995,51.3549202 C18.5405582,51.0979349 18.2839808,50.8682208 18.0480776,50.6304383 C17.6413532,50.2207451 17.2578985,49.7620937 16.8911733,49.2504024 L16.7359041,49.0305736 L16.6114204,48.8462388 L16.4275107,48.5581797 C16.3992744,48.512553 16.3721048,48.467873 16.3457908,48.4237725 C14.7929191,45.8238102 14.047387,42.3892105 14.1452029,38.1604226 C14.1585717,37.5906201 13.9362749,37.0362784 13.5330048,36.6336631 C13.1264261,36.2288307 12.5828457,36.0111075 12.0087649,36.0261204 L11.9999476,36.0204835 L12,32.2194578 L11.998,32.214 L12.4488388,32.0358064 C12.9158292,31.858069 13.4212057,31.689372 13.9659911,31.5307306 L14.5239507,31.3754787 C14.619146,31.3501746 14.7154455,31.3251591 14.8128538,31.3004372 L15.4106486,31.155664 C15.5125115,31.1321345 15.6154927,31.1089078 15.7195971,31.0859887 L16.3577383,30.9522019 C16.466354,30.9305317 16.5761023,30.9091784 16.6869879,30.8881467 L17.3659871,30.7658539 C17.943256,30.6672222 18.5491944,30.5768663 19.1843941,30.4953737 L19.9607172,30.4018745 L20.7653585,30.3171098 L21.5985454,30.2413051 C21.7398013,30.2294302 21.882256,30.2179381 22.0259144,30.2068333 L22.9023457,30.1448918 L23.8078907,30.0924743 C24.1146166,30.0766143 24.4262327,30.0623792 24.7427768,30.0498066 L25.7072312,30.0171143 C26.0336693,30.0079045 26.3650733,30.0003948 26.7014812,29.9946229 L27.7257541,29.9825582 C27.8989808,29.9814289 28.0734679,29.9807433 28.2492202,29.9805064 L29.3189536,29.9845046 C29.6806173,29.9876566 30.0473795,29.9926404 30.4192781,29.9994936 L31.5504211,30.0256988 L32.7126098,30.0633461 L33.9060714,30.1126608 L35.1310334,30.1738688 L36.3877229,30.2471956 L37.6763673,30.3328669 L38.9971938,30.4311082 L40.3504297,30.5421453 L42.1534614,30.7035213 L43.8508499,30.8743061 L44.6275574,30.9569056 L46.1278334,31.1247484 C49.1164439,31.47152 52.1479583,31.47152 55.136772,31.1247249 L56.4998647,30.9707646 L57.8351469,30.8284428 L59.1427915,30.697592 L60.4229714,30.5780453 L61.6758596,30.4696353 L62.9016289,30.372195 L64.1004524,30.2855571 L65.272503,30.2095545 L66.4179536,30.14402 L67.536977,30.0887863 L68.6297464,30.0436864 L69.6964345,30.008553 C69.872052,30.0035187 70.04659,29.9988927 70.2200521,29.9946715 L71.2479427,29.9741745 C71.4171156,29.9715586 71.5852197,29.9693407 71.7522588,29.9675171 L72.7417409,29.9611492 C72.904534,29.9611492 73.0662692,29.9611492 73.2269501,29.9616589 L74.1784128,29.9693061 C74.3348909,29.9713392 74.490322,29.9737493 74.6447096,29.9765328 L75.558542,29.9976879 L76.4475038,30.0276392 C76.5936011,30.0333548 76.7386694,30.03943 76.8827122,30.0458612 L77.7346922,30.0886935 L78.5622338,30.1399041 L79.36551,30.1993259 L80.1446937,30.2667916 L80.8999579,30.3421341 C81.0238516,30.3553383 81.1467558,30.3688637 81.2686742,30.3827069 L81.9883833,30.4695511 L82.6846052,30.5638542 L83.3575127,30.6654489 C83.4677307,30.6829797 83.5769845,30.7008074 83.6852777,30.7189284 L84.3235381,30.8311471 C84.4280032,30.8504277 84.5315149,30.8699947 84.6340768,30.8898446 L85.2380791,31.0123112 L85.8194588,31.1414007 L86.3783889,31.276946 L86.9150423,31.4187799 L87.429592,31.5667351 C87.5135179,31.5918952 87.59653,31.6173033 87.678632,31.642956 L88.1603502,31.7997799 C88.2388259,31.8263972 88.3163985,31.853252 88.3930718,31.8803411 L88.8423477,32.0456575 L89.2654589,32.2146169 Z" id="Shape"></path>
            </g>
        </g>
    </g>
</svg>