<?xml version="1.0" encoding="UTF-8"?>
<svg width="42px" height="42px" viewBox="0 0 42 42" version="1.1" xmlns="http://www.w3.org/2000/svg" xmlns:xlink="http://www.w3.org/1999/xlink">
    <title>noun_Inventory Control_1877654</title>
    <g id="Page-1" stroke="none" stroke-width="1" fill="none" fill-rule="evenodd">
        <g id="Dashboard_2" transform="translate(-55.000000, -446.000000)" fill-rule="nonzero">
            <g id="Group-11" transform="translate(34.000000, 447.000000)">
                <g id="noun_Inventory-Control_1877654" transform="translate(22.000000, 0.000000)">
                    <g id="Group" stroke="#333333">
                        <path d="M38.75,0 L21.8125,0 C21.125,0 20.5625,0.5625 20.5625,1.25 L20.5625,18.1875 C20.5625,18.875 21.125,19.4375 21.8125,19.4375 L38.75,19.4375 C39.4375,19.4375 40,18.875 40,18.1875 L40,1.25 C40,0.5625 39.4375,0 38.75,0 Z" id="Shape" stroke-width="1.5"></path>
                        <path d="M18.25,3.9375 L13.875,3.9375 C13.5625,3.9375 13.3125,4.125 13.25,4.4375 L12.75,7.1875 C11.5625,7.5 10.375,8 9.3125,8.625 L7,7.0625 C6.8125,6.875 6.4375,6.875 6.25,7.125 L3.1875,10.1875 C3,10.375 2.9375,10.75 3.125,11 L4.6875,13.3125 C4.0625,14.375 3.5625,15.5625 3.25,16.75 L0.5625,17.25 C0.1875,17.25 0,17.5 0,17.8125 L0,22.1875 C0,22.5 0.1875,22.75 0.5,22.8125 L3.1875,23.3125 C3.5,24.5 4,25.6875 4.625,26.75 L3.0625,29.0625 C2.875,29.3125 2.9375,29.625 3.125,29.875 L6.1875,32.9375 C6.375,33.125 6.75,33.1875 7,33 L9.3125,31.4375 C10.375,32.0625 11.5625,32.5625 12.75,32.875 L13.25,35.5625 C13.3125,35.875 13.5625,36.0625 13.875,36.0625 L18.25,36.0625 C18.5625,36.0625 18.8125,35.875 18.875,35.5625 L19.375,33.0625 L19.375,25.875 C18.375,26.4375 17.25,26.75 16.125,26.75 C12.375,26.6875 9.375,23.6875 9.375,20 C9.375,16.3125 12.375,13.3125 16.0625,13.3125 C17.25,13.3125 18.375,13.625 19.3125,14.1875 L19.3125,6.9375 L18.8125,4.4375 C18.8125,4.125 18.5625,3.9375 18.25,3.9375 Z" id="Path" fill="#FF7D01"></path>
                        <path d="M38.75,20.5625 L21.8125,20.5625 C21.125,20.5625 20.5625,21.125 20.5625,21.8125 L20.5625,38.75 C20.5625,39.4375 21.125,40 21.8125,40 L38.75,40 C39.4375,40 40,39.4375 40,38.75 L40,21.8125 C40,21.125 39.4375,20.5625 38.75,20.5625 Z" id="Shape" stroke-width="1.5"></path>
                    </g>
                    <path d="M31.9375,32.3125 C31.6875,32.5625 31.3125,32.5625 31.0625,32.3125 L30.9375,32.1875 L30.9375,36 C30.9375,36.3125 30.625,36.625 30.3125,36.625 C30,36.625 29.6875,36.3125 29.6875,36 L29.6875,32.1875 L29.5625,32.3125 C29.3125,32.5625 28.9375,32.5625 28.6875,32.3125 C28.4375,32.0625 28.4375,31.6875 28.6875,31.4375 L29.875,30.25 C30.125,30 30.5,30 30.75,30.25 L31.9375,31.4375 C32.1875,31.6875 32.1875,32.0625 31.9375,32.3125 Z" id="Path" fill="#333333"></path>
                    <path d="M33.3125,27.25 L27.25,27.25 C26.5625,27.25 26.0625,26.6875 26.0625,26.0625 C26.0625,25.375 26.625,24.875 27.25,24.875 L33.3125,24.875 C34,24.875 34.5,25.4375 34.5,26.0625 C34.5625,26.75 34,27.25 33.3125,27.25 Z" id="Path" fill="#333333"></path>
                    <path d="M31.9375,11.75 C31.6875,12 31.3125,12 31.0625,11.75 L30.9375,11.625 L30.9375,15.4375 C30.9375,15.8125 30.625,16.0625 30.3125,16.0625 C30,16.0625 29.6875,15.8125 29.6875,15.4375 L29.6875,11.625 L29.5625,11.75 C29.3125,12 28.9375,12 28.6875,11.75 C28.4375,11.5 28.4375,11.125 28.6875,10.875 L29.875,9.6875 C30.125,9.4375 30.5,9.4375 30.75,9.6875 L31.9375,10.875 C32.1875,11.125 32.1875,11.5 31.9375,11.75 Z" id="Path" fill="#333333"></path>
                    <path d="M33.3125,6.6875 L27.25,6.6875 C26.5625,6.6875 26.0625,6.125 26.0625,5.5 C26.0625,4.875 26.625,4.3125 27.25,4.3125 L33.3125,4.3125 C34,4.3125 34.5,4.875 34.5,5.5 C34.5625,6.125 34,6.6875 33.3125,6.6875 Z" id="Path" fill="#333333"></path>
                </g>
            </g>
        </g>
    </g>
</svg>