<?xml version="1.0" encoding="UTF-8"?>
<svg width="22px" height="20px" viewBox="0 0 22 20" version="1.1" xmlns="http://www.w3.org/2000/svg" xmlns:xlink="http://www.w3.org/1999/xlink">
    <title>Path</title>
    <g id="Page-1" stroke="none" stroke-width="1" fill="none" fill-rule="evenodd">
        <g id="Insta-Feed-Screen" transform="translate(-25.000000, -442.000000)" fill="#FF7D01" fill-rule="nonzero">
            <g id="Group-14" transform="translate(16.000000, 194.000000)">
                <g id="Group-3" transform="translate(9.000000, 248.236364)">
                    <path d="M5.65500325,1.47570909 C7.26552696,1.47570909 8.64044071,2.46776283 9.31885557,4.08916989 L9.90225645,5.48354251 C10.080515,5.90959414 10.5704053,6.11047009 10.9964569,5.9322115 C11.1991487,5.84740593 11.3603203,5.68623429 11.4451259,5.48354251 L12.0285303,4.08916149 C12.6903794,2.50740397 14.1721781,1.47614197 15.8207332,1.47614197 C17.9217168,1.47614197 19.6402318,3.26993124 19.947932,5.77043058 L19.9747236,6.03058642 L19.9905102,6.14575411 C19.9970974,6.2169937 20.0009663,6.30861687 19.999808,6.42146187 C19.9962005,6.78318441 19.9436744,7.22416872 19.8226943,7.74104211 L19.7465056,8.0395143 C19.3359809,9.52397881 18.4842622,10.8863992 17.3048947,11.9648771 L10.6814956,17.9224 L4.17354951,11.9669386 C2.91399554,10.81614 2.02789782,9.34173382 1.65307503,7.74061241 C1.5320818,7.22385317 1.4795744,6.78304447 1.47590697,6.42112548 L1.47961726,6.22334077 L1.49070618,6.10407516 L1.50434259,5.99243962 C1.7347295,3.37656123 3.49220096,1.47570909 5.65500325,1.47570909 Z M21.4414005,5.863255 C21.1480776,2.53304942 18.8064919,0.000432874667 15.8207332,0.000432874667 L15.5959887,0.00507202984 C13.5066139,0.0914349672 11.65646,1.37702474 10.7595945,3.31000099 L10.6733138,3.50421818 L10.6802074,3.51957491 C9.78010904,1.3683457 7.88368223,0 5.65500325,0 C2.73707624,0 0.434404761,2.41880463 0.0574805533,5.6371504 L0.0354696875,5.8571373 L0.0158558737,6.00889041 C0.00463169146,6.12923422 -0.0013912529,6.27184446 0.000273664392,6.43608145 C0.00503059074,6.90551669 0.0703792453,7.45412998 0.216219017,8.07700819 C0.660203703,9.97356677 1.70286527,11.7084846 3.17771328,13.0559873 L10.1138891,19.403724 C10.4314462,19.6943407 10.9177466,19.6964033 11.2377574,19.4084907 L18.296333,13.0579149 C19.7742181,11.7064889 20.8158124,9.97272758 21.2595583,8.07740349 C21.4053907,7.45435207 21.4707629,6.90551718 21.4754415,6.43639322 C21.4765615,6.32728472 21.4742699,6.22780538 21.4693076,6.13780932 L21.4515805,5.93302581 L21.4414005,5.863255 Z" id="Path"></path>
                </g>
            </g>
        </g>
    </g>
</svg>