<?xml version="1.0" encoding="UTF-8"?>
<svg width="22px" height="20px" viewBox="0 0 22 20" version="1.1" xmlns="http://www.w3.org/2000/svg" xmlns:xlink="http://www.w3.org/1999/xlink">
    <title>Wallet</title>
    <g id="Page-1" stroke="none" stroke-width="1" fill="none" fill-rule="evenodd">
        <g id="Dashboard-Screen" transform="translate(-256.000000, -1372.000000)">
            <g id="Bottom-Nav-Bar" transform="translate(0.000000, 1354.000000)">
                <g id="Wallet" transform="translate(256.000000, 18.000000)">
                    <g id="Group" transform="translate(12.000000, 7.200000)"></g>
                    <path d="M18.0539173,0.363636364 L2.3448264,0.363636364 C1.13984149,0.363636364 0.163008217,1.34046964 0.163008217,2.54545455 L0.163008217,17.6726545 C0.163008217,18.8776395 1.13984149,19.8544727 2.3448264,19.8544727 L18.0539173,19.8544727 C19.2589022,19.8544727 20.2357355,18.8776395 20.2357355,17.6726545 L20.2357355,2.54545455 C20.2357355,1.34046964 19.2589022,0.363636364 18.0539173,0.363636364 Z M2.3448264,1.23636364 L18.0539173,1.23636364 C18.7769083,1.23636364 19.3630082,1.8224636 19.3630082,2.54545455 L19.3630082,17.6726545 C19.3630082,18.3956455 18.7769083,18.9817455 18.0539173,18.9817455 L2.3448264,18.9817455 C1.62183545,18.9817455 1.03573549,18.3956455 1.03573549,17.6726545 L1.03573549,2.54545455 C1.03573549,1.8224636 1.62183545,1.23636364 2.3448264,1.23636364 Z" id="Path-11" fill="#333333" fill-rule="nonzero"></path>
                    <path d="M20.6878696,12.1454545 L20.6878696,8.65454545 C20.6878696,8.17255149 20.2971363,7.78181818 19.8151423,7.78181818 C18.1540452,7.78181818 16.4929481,7.78181818 14.831851,7.78181818 C12.0257466,7.78181818 12.0257466,13.0181818 14.831851,13.0181818 C16.4929481,13.0181818 18.1540452,13.0181818 19.8151423,13.0181818 C20.2971363,13.0181818 20.6878696,12.6274485 20.6878696,12.1454545 Z" id="Path-12" stroke="#333333" stroke-width="0.872727273" fill="#FF7D01"></path>
                    <circle id="Oval" fill="#FFFFFF" cx="15.7818182" cy="10.4" r="1.30909091"></circle>
                </g>
            </g>
        </g>
    </g>
</svg>