<?xml version="1.0" encoding="UTF-8"?>
<svg width="61px" height="31px" viewBox="0 0 61 31" version="1.1" xmlns="http://www.w3.org/2000/svg" xmlns:xlink="http://www.w3.org/1999/xlink">
    <title>noun_sneakers_1201149</title>
    <g id="Page-1" stroke="none" stroke-width="1" fill="none" fill-rule="evenodd">
        <g id="Category-Footwear-List" transform="translate(-151.000000, -264.000000)" fill-rule="nonzero">
            <g id="Group-3" transform="translate(129.000000, 241.000000)">
                <g id="noun_sneakers_1201149" transform="translate(23.000000, 24.000000)">
                    <g id="Group" transform="translate(0.000000, 0.478365)">
                        <path d="M25.3479368,0.3048 C26.4505867,1.52835 27.5719118,2.6856 28.6995368,3.797025 L21.8089118,11.507925 C21.2001367,12.0741 21.2106368,13.170075 21.8299118,13.724475 C22.4494867,14.2788 23.5399118,14.167875 24.0351367,13.50015 L30.8788867,5.859525 C31.7344868,6.625725 32.6121368,7.36245 33.5038867,8.06265 L30.2929868,11.81265 C29.7773618,12.407775 29.8498118,13.418475 30.4450868,13.93395 C31.0403618,14.449425 32.0510618,14.37675 32.5663868,13.7814 L35.9179868,9.8439 C40.4672618,12.961725 45.6267375,15.25935 52.0429875,16.5939 C54.1648875,17.06475 56.5347375,17.376375 58.3008375,18.56265 C58.7765625,18.89595 58.9227375,19.1538 58.9570875,19.265775 C58.9743375,19.322025 58.9960875,19.37475 58.9803375,19.453275 C55.4554883,21.0051 51.4835625,22.185975 47.1912375,22.28925 C31.7866118,22.28925 16.3783875,22.28925 0.9724875,22.28925 C0.4033125,20.712 0.0342375,19.181025 0.0115875,17.9064 C0.3230625,16.50885 0.9475125,15.475575 1.5819375,14.203275 C2.2393875,12.88455 2.8339125,11.2005 2.4724875,9.140775 C2.4522375,9.036225 2.4207375,8.933925 2.3787375,8.83605 C7.92213675,8.451375 12.6183368,7.900275 16.1834625,6.8439 C18.0067875,6.303675 19.5464618,5.635275 20.7772125,4.68765 C21.8336625,3.874275 22.5591375,2.764575 22.9569375,1.52355 C22.9644375,1.51305 22.9726875,1.5108 22.9801875,1.5003 C23.5497375,0.69465 24.2770875,0.368325 25.3473375,0.305025 L25.3479368,0.3048 Z" id="Path" stroke="#333333" stroke-width="2"></path>
                        <path d="M59.9651625,22.28925 C59.9726625,22.33875 59.9884125,22.380675 59.9884125,22.429875 C59.9884125,22.992 59.7637883,23.504175 59.8477125,23.508 C59.1151875,24.07425 56.2885125,25.43025 53.2618125,26.4846 C50.1475125,27.569475 46.6688625,28.475475 44.5196625,28.687725 C40.7065125,28.687725 37.6844618,28.755975 35.5430618,28.734225 C33.3680618,28.712475 31.9093875,28.4286 31.9571618,28.452975 C31.9572375,28.445475 31.9572375,28.437225 31.9571618,28.429725 C30.9116618,27.90105 30.7245368,27.461775 29.6134118,26.88285 C27.2399625,25.89975 25.6776375,25.826775 23.6836868,25.8516 C21.5091368,25.937175 19.7869118,26.66325 18.5274368,27.28125 C17.2679618,27.89925 16.3717868,28.213275 16.4414618,28.21875 C16.4024618,28.21875 16.3633118,28.21875 16.3243118,28.21875 L5.16806175,28.21875 C3.92636175,28.1625 2.68008675,27.738525 1.7696625,27.117225 C1.05318675,26.60985 0.57078675,26.127075 0.50396175,25.2891 C16.0812368,25.2891 31.6643618,25.2891 47.2384125,25.2891 C51.9506625,25.180125 56.2357125,23.908125 59.9649375,22.2891 L59.9651625,22.28925 Z" id="Path" fill="#FF7D01"></path>
                    </g>
                </g>
            </g>
        </g>
    </g>
</svg>