<?xml version="1.0" encoding="UTF-8"?>
<svg width="33px" height="41px" viewBox="0 0 33 41" version="1.1" xmlns="http://www.w3.org/2000/svg" xmlns:xlink="http://www.w3.org/1999/xlink">
    <title>Group</title>
    <g id="Page-1" stroke="none" stroke-width="1" fill="none" fill-rule="evenodd">
        <g id="Dashboard_2" transform="translate(-68.000000, -209.000000)" stroke="#333333">
            <g id="Group-8" transform="translate(34.000000, 210.000000)">
                <g id="Group" transform="translate(35.000000, 0.000000)">
                    <path d="M15.2461538,0 C17.4769231,0 19.5,0.907692308 20.9615385,2.36923077 C22.4230769,3.83076923 23.3307692,5.85384615 23.3307692,8.08461538 C23.3307692,10.3153846 22.4230769,12.3384615 20.9615385,13.8 C19.5,15.2615385 17.4769231,16.1692308 15.2461538,16.1692308 C13.0153846,16.1692308 10.9923077,15.2615385 9.53076923,13.8 C8.06923077,12.3384615 7.16153846,10.3153846 7.16153846,8.08461538 C7.16153846,5.85384615 8.06923077,3.83076923 9.53076923,2.36923077 C10.9923077,0.907692308 13.0153846,0 15.2461538,0 Z" id="Path" stroke-width="1.5" fill-rule="nonzero"></path>
                    <path d="M6.30769231,31.3692308 L5.41538462,31.3692308 L0.607692308,31.3692308 L0.607692308,31.3692308 C0.6,31.3692308 0.592307692,31.3692308 0.592307692,31.3692308 C0.261538462,31.3615385 -0.00769230769,31.0769231 0.00769230769,30.7461538 C0.0230769231,30.3692308 0.0307692308,29.9923077 0.0384615385,29.6076923 C0.0846153846,27.5230769 0.146153846,25.1461538 0.676923077,23.3076923 C1.14615385,21.6846154 1.98461538,20.4 3.55384615,19.2538462 C5.04615385,18.1615385 7.20769231,17.2076923 10.3615385,16.2 C10.5461538,16.1307692 10.7538462,16.1538462 10.9307692,16.2692308 C11.5538462,16.7153846 12.2461538,17.0615385 12.9846154,17.3 C13.7,17.5230769 14.4615385,17.6461538 15.2615385,17.6461538 C16.0615385,17.6461538 16.8230769,17.5230769 17.5384615,17.3 C18.2769231,17.0615385 18.9692308,16.7153846 19.5923077,16.2692308 L19.5923077,16.2692308 C19.7384615,16.1692308 19.9230769,16.1307692 20.1076923,16.1769231 C23.5846154,17.1461538 25.8538462,18.1923077 27.3615385,19.4384615 C28.9230769,20.7384615 29.6538462,22.2384615 30.0384615,24.0846154 C30.3846154,25.7846154 30.4384615,27.7769231 30.4846154,29.6076923 C30.4923077,29.9692308 30.5,30.3153846 30.5153846,30.6846154 C30.5153846,30.7076923 30.5230769,30.7307692 30.5230769,30.7538462 C30.5230769,31.0923077 30.2538462,31.3615385 29.9153846,31.3615385 L26.5384615,31.3615385 L24.2153846,31.3615385 L24.2153846,30.2846154 C24.2153846,29.6230769 23.9538462,28.9846154 23.4846154,28.5153846 C23.2538462,28.2846154 22.9846154,28.1 22.6923077,27.9769231 C22.8153846,27.6846154 22.8769231,27.3615385 22.8769231,27.0384615 C22.8769231,26.3769231 22.6153846,25.7384615 22.1461538,25.2692308 L21.0615385,24.1846154 C20.5923077,23.7153846 19.9538462,23.4538462 19.2923077,23.4538462 C18.9692308,23.4538462 18.6461538,23.5153846 18.3538462,23.6384615 C18.2307692,23.3461538 18.0461538,23.0769231 17.8153846,22.8461538 C17.3461538,22.3769231 16.7153846,22.1153846 16.0461538,22.1153846 L14.5153846,22.1153846 C13.8538462,22.1153846 13.2153846,22.3769231 12.7461538,22.8461538 C12.5153846,23.0769231 12.3307692,23.3461538 12.2076923,23.6384615 C11.9153846,23.5153846 11.5923077,23.4538462 11.2692308,23.4538462 C10.6076923,23.4538462 9.96923077,23.7153846 9.5,24.1846154 L8.41538462,25.2692308 C7.94615385,25.7384615 7.68461538,26.3769231 7.68461538,27.0384615 C7.68461538,27.3615385 7.74615385,27.6846154 7.86923077,27.9769231 C7.57692308,28.1 7.30769231,28.2846154 7.07692308,28.5153846 C6.60769231,28.9846154 6.34615385,29.6153846 6.34615385,30.2846154 L6.34615385,31.3615385 L6.30769231,31.3692308 Z" id="Path" stroke-width="1.5" fill-rule="nonzero"></path>
                    <path d="M6.91538462,31.8230769 C6.91538462,32.3461538 7.13076923,32.8153846 7.46923077,33.1615385 C7.81538462,33.5076923 8.28461538,33.7153846 8.80769231,33.7153846 L8.82307692,33.7153846 L8.80769231,33.7307692 C8.43846154,34.1 8.25384615,34.5846154 8.25384615,35.0692308 C8.25384615,35.5538462 8.43846154,36.0384615 8.80769231,36.4076923 L9.89230769,37.4923077 C10.2615385,37.8615385 10.7461538,38.0461538 11.2307692,38.0461538 C11.7153846,38.0461538 12.2,37.8615385 12.5692308,37.4923077 L12.5846154,37.4769231 L12.5846154,37.4923077 C12.5846154,38.0153846 12.8,38.4846154 13.1384615,38.8307692 C13.4846154,39.1769231 13.9538462,39.3846154 14.4769231,39.3846154 L16.0076923,39.3846154 C16.5307692,39.3846154 17,39.1692308 17.3461538,38.8307692 C17.6923077,38.4846154 17.9,38.0153846 17.9,37.4923077 L17.9,37.4769231 L17.9153846,37.4923077 C18.2846154,37.8615385 18.7692308,38.0461538 19.2538462,38.0461538 C19.7384615,38.0461538 20.2230769,37.8615385 20.5923077,37.4923077 L21.6769231,36.4076923 C22.0461538,36.0384615 22.2307692,35.5538462 22.2307692,35.0692308 C22.2307692,34.5846154 22.0461538,34.1 21.6769231,33.7307692 L21.6615385,33.7153846 L21.6769231,33.7153846 C22.2,33.7153846 22.6692308,33.5 23.0153846,33.1615385 C23.3615385,32.8153846 23.5692308,32.3461538 23.5692308,31.8230769 L23.5692308,30.2923077 C23.5692308,29.7692308 23.3538462,29.3 23.0153846,28.9538462 C22.6692308,28.6076923 22.2,28.4 21.6769231,28.4 L21.6615385,28.4 L21.6769231,28.3846154 C22.0461538,28.0153846 22.2307692,27.5307692 22.2307692,27.0461538 C22.2307692,26.5615385 22.0461538,26.0769231 21.6769231,25.7076923 L20.5923077,24.6230769 C20.2230769,24.2538462 19.7384615,24.0692308 19.2538462,24.0692308 C18.7692308,24.0692308 18.2846154,24.2538462 17.9153846,24.6230769 L17.9,24.6384615 L17.9,24.6230769 C17.9,24.1 17.6846154,23.6307692 17.3461538,23.2846154 C17,22.9384615 16.5307692,22.7307692 16.0076923,22.7307692 L14.4769231,22.7307692 C13.9538462,22.7307692 13.4846154,22.9461538 13.1384615,23.2846154 C12.7923077,23.6307692 12.5846154,24.1 12.5846154,24.6230769 L12.5846154,24.6384615 L12.5692308,24.6230769 C12.2,24.2538462 11.7153846,24.0692308 11.2307692,24.0692308 C10.7461538,24.0692308 10.2615385,24.2538462 9.89230769,24.6230769 L8.80769231,25.7076923 C8.43846154,26.0769231 8.25384615,26.5615385 8.25384615,27.0461538 C8.25384615,27.5307692 8.43846154,28.0153846 8.80769231,28.3846154 L8.82307692,28.4 L8.80769231,28.4 C8.28461538,28.4 7.81538462,28.6153846 7.46923077,28.9538462 C7.12307692,29.3 6.91538462,29.7692308 6.91538462,30.2923077 L6.91538462,31.8230769 Z M17.5846154,33.1076923 C16.9846154,33.7076923 16.1538462,34.0769231 15.2384615,34.0769231 C14.3230769,34.0769231 13.4923077,33.7076923 12.8923077,33.1076923 C12.2923077,32.5076923 11.9230769,31.6769231 11.9230769,30.7615385 C11.9230769,29.8461538 12.2923077,29.0153846 12.8923077,28.4153846 C13.4923077,27.8153846 14.3230769,27.4461538 15.2384615,27.4461538 C16.1538462,27.4461538 16.9846154,27.8153846 17.5846154,28.4153846 C18.1846154,29.0153846 18.5538462,29.8461538 18.5538462,30.7615385 C18.5538462,31.6769231 18.1846154,32.5076923 17.5846154,33.1076923 Z" id="Shape" stroke-width="0.833333333" fill="#FF7D01"></path>
                </g>
            </g>
        </g>
    </g>
</svg>